<?xml version="1.0" encoding="UTF-8"?>
<svg width="1191px" height="85px" viewBox="0 0 1191 85" version="1.1" xmlns="http://www.w3.org/2000/svg" xmlns:xlink="http://www.w3.org/1999/xlink">
    <!-- Generator: Sketch 51.2 (57519) - http://www.bohemiancoding.com/sketch -->
    <title>Group 14</title>
    <desc>Created with Sketch.</desc>
    <defs></defs>
    <g id="Page-1" stroke="none" stroke-width="1" fill="none" fill-rule="evenodd">
        <g id="Desktop-WF" transform="translate(-86.000000, -1471.000000)">
            <g id="Group-14" transform="translate(86.000000, 1471.000000)">
                <rect id="Rectangle-3-Copy-5" fill="#A5A5A5" fill-rule="nonzero" x="17" y="68" width="1160" height="1"></rect>
                <g id="Group-7" transform="translate(21.000000, 4.000000)">
                    <path d="M4.5,0 L4.5,0 C6.98528137,-4.56538782e-16 9,2.01471863 9,4.5 L9,64 L0,64 L0,4.5 C-3.04359188e-16,2.01471863 2.01471863,4.56538782e-16 4.5,0 Z" id="Bar-Copy-72" fill="#44A484"></path>
                    <path d="M19.5,22 L19.5,22 C21.9852814,22 24,24.0147186 24,26.5 L24,64 L15,64 L15,26.5 C15,24.0147186 17.0147186,22 19.5,22 Z" id="Bar-Copy-74" fill="#70C3C9"></path>
                    <path d="M34.5,32 L34.5,32 C36.9852814,32 39,34.0147186 39,36.5 L39,64 L30,64 L30,36.5 C30,34.0147186 32.0147186,32 34.5,32 Z" id="Bar" fill="#E8B251"></path>
                </g>
                <g id="Group-7" transform="translate(86.352941, 4.000000)">
                    <path d="M4.5,0 L4.5,0 C6.98528137,-4.56538782e-16 9,2.01471863 9,4.5 L9,64 L0,64 L0,4.5 C-3.04359188e-16,2.01471863 2.01471863,4.56538782e-16 4.5,0 Z" id="Bar-Copy-72" fill="#44A484"></path>
                    <path d="M19.5,22 L19.5,22 C21.9852814,22 24,24.0147186 24,26.5 L24,64 L15,64 L15,26.5 C15,24.0147186 17.0147186,22 19.5,22 Z" id="Bar-Copy-74" fill="#76C6CC"></path>
                    <path d="M34.5,32 L34.5,32 C36.9852814,32 39,34.0147186 39,36.5 L39,64 L30,64 L30,36.5 C30,34.0147186 32.0147186,32 34.5,32 Z" id="Bar" fill="#E8B251"></path>
                </g>
                <g id="Group-7" transform="translate(151.705882, 4.000000)">
                    <path d="M4.5,0 L4.5,0 C6.98528137,-4.56538782e-16 9,2.01471863 9,4.5 L9,64 L0,64 L0,4.5 C-3.04359188e-16,2.01471863 2.01471863,4.56538782e-16 4.5,0 Z" id="Bar-Copy-72" fill="#44A484"></path>
                    <path d="M19.5,22 L19.5,22 C21.9852814,22 24,24.0147186 24,26.5 L24,64 L15,64 L15,26.5 C15,24.0147186 17.0147186,22 19.5,22 Z" id="Bar-Copy-74" fill="#76C6CC"></path>
                    <path d="M34.5,32 L34.5,32 C36.9852814,32 39,34.0147186 39,36.5 L39,64 L30,64 L30,36.5 C30,34.0147186 32.0147186,32 34.5,32 Z" id="Bar" fill="#E8B251"></path>
                </g>
                <g id="Group-7" transform="translate(217.058824, 4.000000)">
                    <path d="M4.5,0 L4.5,0 C6.98528137,-4.56538782e-16 9,2.01471863 9,4.5 L9,64 L0,64 L0,4.5 C-3.04359188e-16,2.01471863 2.01471863,4.56538782e-16 4.5,0 Z" id="Bar-Copy-72" fill="#44A484"></path>
                    <path d="M19.5,22 L19.5,22 C21.9852814,22 24,24.0147186 24,26.5 L24,64 L15,64 L15,26.5 C15,24.0147186 17.0147186,22 19.5,22 Z" id="Bar-Copy-74" fill="#76C6CC"></path>
                    <path d="M34.5,32 L34.5,32 C36.9852814,32 39,34.0147186 39,36.5 L39,64 L30,64 L30,36.5 C30,34.0147186 32.0147186,32 34.5,32 Z" id="Bar" fill="#E8B251"></path>
                </g>
                <g id="Group-7" transform="translate(282.411765, 4.000000)">
                    <path d="M4.5,0 L4.5,0 C6.98528137,-4.56538782e-16 9,2.01471863 9,4.5 L9,64 L0,64 L0,4.5 C-3.04359188e-16,2.01471863 2.01471863,4.56538782e-16 4.5,0 Z" id="Bar-Copy-72" fill="#44A484"></path>
                    <path d="M19.5,22 L19.5,22 C21.9852814,22 24,24.0147186 24,26.5 L24,64 L15,64 L15,26.5 C15,24.0147186 17.0147186,22 19.5,22 Z" id="Bar-Copy-74" fill="#76C6CC"></path>
                    <path d="M34.5,32 L34.5,32 C36.9852814,32 39,34.0147186 39,36.5 L39,64 L30,64 L30,36.5 C30,34.0147186 32.0147186,32 34.5,32 Z" id="Bar" fill="#E8B251"></path>
                </g>
                <g id="Group-7" transform="translate(347.764706, 4.000000)">
                    <path d="M4.5,0 L4.5,0 C6.98528137,-4.56538782e-16 9,2.01471863 9,4.5 L9,64 L0,64 L0,4.5 C-3.04359188e-16,2.01471863 2.01471863,4.56538782e-16 4.5,0 Z" id="Bar-Copy-72" fill="#44A484"></path>
                    <path d="M19.5,22 L19.5,22 C21.9852814,22 24,24.0147186 24,26.5 L24,64 L15,64 L15,26.5 C15,24.0147186 17.0147186,22 19.5,22 Z" id="Bar-Copy-74" fill="#76C6CC"></path>
                    <path d="M34.5,32 L34.5,32 C36.9852814,32 39,34.0147186 39,36.5 L39,64 L30,64 L30,36.5 C30,34.0147186 32.0147186,32 34.5,32 Z" id="Bar" fill="#E8B251"></path>
                </g>
                <g id="Group-7" transform="translate(413.117647, 4.000000)">
                    <path d="M4.5,0 L4.5,0 C6.98528137,-4.56538782e-16 9,2.01471863 9,4.5 L9,64 L0,64 L0,4.5 C-3.04359188e-16,2.01471863 2.01471863,4.56538782e-16 4.5,0 Z" id="Bar-Copy-72" fill="#44A484"></path>
                    <path d="M19.5,22 L19.5,22 C21.9852814,22 24,24.0147186 24,26.5 L24,64 L15,64 L15,26.5 C15,24.0147186 17.0147186,22 19.5,22 Z" id="Bar-Copy-74" fill="#76C6CC"></path>
                    <path d="M34.5,32 L34.5,32 C36.9852814,32 39,34.0147186 39,36.5 L39,64 L30,64 L30,36.5 C30,34.0147186 32.0147186,32 34.5,32 Z" id="Bar" fill="#E8B251"></path>
                </g>
                <g id="Group-7" transform="translate(478.470588, 4.000000)">
                    <path d="M4.5,0 L4.5,0 C6.98528137,-4.56538782e-16 9,2.01471863 9,4.5 L9,64 L0,64 L0,4.5 C-3.04359188e-16,2.01471863 2.01471863,4.56538782e-16 4.5,0 Z" id="Bar-Copy-72" fill="#44A484"></path>
                    <path d="M19.5,22 L19.5,22 C21.9852814,22 24,24.0147186 24,26.5 L24,64 L15,64 L15,26.5 C15,24.0147186 17.0147186,22 19.5,22 Z" id="Bar-Copy-74" fill="#76C6CC"></path>
                    <path d="M34.5,32 L34.5,32 C36.9852814,32 39,34.0147186 39,36.5 L39,64 L30,64 L30,36.5 C30,34.0147186 32.0147186,32 34.5,32 Z" id="Bar" fill="#E8B251"></path>
                </g>
                <g id="Group-7" transform="translate(543.823529, 4.000000)">
                    <path d="M4.5,0 L4.5,0 C6.98528137,-4.56538782e-16 9,2.01471863 9,4.5 L9,64 L0,64 L0,4.5 C-3.04359188e-16,2.01471863 2.01471863,4.56538782e-16 4.5,0 Z" id="Bar-Copy-72" fill="#44A484"></path>
                    <path d="M19.5,22 L19.5,22 C21.9852814,22 24,24.0147186 24,26.5 L24,64 L15,64 L15,26.5 C15,24.0147186 17.0147186,22 19.5,22 Z" id="Bar-Copy-74" fill="#76C6CC"></path>
                    <path d="M34.5,32 L34.5,32 C36.9852814,32 39,34.0147186 39,36.5 L39,64 L30,64 L30,36.5 C30,34.0147186 32.0147186,32 34.5,32 Z" id="Bar" fill="#E8B251"></path>
                </g>
                <g id="Group-7" transform="translate(609.176471, 4.000000)">
                    <path d="M4.5,0 L4.5,0 C6.98528137,-4.56538782e-16 9,2.01471863 9,4.5 L9,64 L0,64 L0,4.5 C-3.04359188e-16,2.01471863 2.01471863,4.56538782e-16 4.5,0 Z" id="Bar-Copy-72" fill="#44A484"></path>
                    <path d="M19.5,22 L19.5,22 C21.9852814,22 24,24.0147186 24,26.5 L24,64 L15,64 L15,26.5 C15,24.0147186 17.0147186,22 19.5,22 Z" id="Bar-Copy-74" fill="#76C6CC"></path>
                    <path d="M34.5,32 L34.5,32 C36.9852814,32 39,34.0147186 39,36.5 L39,64 L30,64 L30,36.5 C30,34.0147186 32.0147186,32 34.5,32 Z" id="Bar" fill="#E8B251"></path>
                </g>
                <g id="Group-7" transform="translate(674.529412, 4.000000)">
                    <path d="M4.5,0 L4.5,0 C6.98528137,-4.56538782e-16 9,2.01471863 9,4.5 L9,64 L0,64 L0,4.5 C-3.04359188e-16,2.01471863 2.01471863,4.56538782e-16 4.5,0 Z" id="Bar-Copy-72" fill="#44A484"></path>
                    <path d="M19.5,22 L19.5,22 C21.9852814,22 24,24.0147186 24,26.5 L24,64 L15,64 L15,26.5 C15,24.0147186 17.0147186,22 19.5,22 Z" id="Bar-Copy-74" fill="#76C6CC"></path>
                    <path d="M34.5,32 L34.5,32 C36.9852814,32 39,34.0147186 39,36.5 L39,64 L30,64 L30,36.5 C30,34.0147186 32.0147186,32 34.5,32 Z" id="Bar" fill="#E8B251"></path>
                </g>
                <g id="Group-7" transform="translate(739.882353, 4.000000)">
                    <path d="M4.5,0 L4.5,0 C6.98528137,-4.56538782e-16 9,2.01471863 9,4.5 L9,64 L0,64 L0,4.5 C-3.04359188e-16,2.01471863 2.01471863,4.56538782e-16 4.5,0 Z" id="Bar-Copy-72" fill="#44A484"></path>
                    <path d="M19.5,22 L19.5,22 C21.9852814,22 24,24.0147186 24,26.5 L24,64 L15,64 L15,26.5 C15,24.0147186 17.0147186,22 19.5,22 Z" id="Bar-Copy-74" fill="#76C6CC"></path>
                    <path d="M34.5,32 L34.5,32 C36.9852814,32 39,34.0147186 39,36.5 L39,64 L30,64 L30,36.5 C30,34.0147186 32.0147186,32 34.5,32 Z" id="Bar" fill="#E8B251"></path>
                </g>
                <g id="Group-7" transform="translate(805.235294, 4.000000)">
                    <path d="M4.5,0 L4.5,0 C6.98528137,-4.56538782e-16 9,2.01471863 9,4.5 L9,64 L0,64 L0,4.5 C-3.04359188e-16,2.01471863 2.01471863,4.56538782e-16 4.5,0 Z" id="Bar-Copy-72" fill="#44A484"></path>
                    <path d="M19.5,22 L19.5,22 C21.9852814,22 24,24.0147186 24,26.5 L24,64 L15,64 L15,26.5 C15,24.0147186 17.0147186,22 19.5,22 Z" id="Bar-Copy-74" fill="#76C6CC"></path>
                    <path d="M34.5,32 L34.5,32 C36.9852814,32 39,34.0147186 39,36.5 L39,64 L30,64 L30,36.5 C30,34.0147186 32.0147186,32 34.5,32 Z" id="Bar" fill="#E8B251"></path>
                </g>
                <g id="Group-7" transform="translate(870.588235, 4.000000)">
                    <path d="M4.5,0 L4.5,0 C6.98528137,-4.56538782e-16 9,2.01471863 9,4.5 L9,64 L0,64 L0,4.5 C-3.04359188e-16,2.01471863 2.01471863,4.56538782e-16 4.5,0 Z" id="Bar-Copy-72" fill="#44A484"></path>
                    <path d="M19.5,22 L19.5,22 C21.9852814,22 24,24.0147186 24,26.5 L24,64 L15,64 L15,26.5 C15,24.0147186 17.0147186,22 19.5,22 Z" id="Bar-Copy-74" fill="#76C6CC"></path>
                    <path d="M34.5,32 L34.5,32 C36.9852814,32 39,34.0147186 39,36.5 L39,64 L30,64 L30,36.5 C30,34.0147186 32.0147186,32 34.5,32 Z" id="Bar" fill="#E8B251"></path>
                </g>
                <g id="Group-7" transform="translate(935.941176, 4.000000)">
                    <path d="M4.5,0 L4.5,0 C6.98528137,-4.56538782e-16 9,2.01471863 9,4.5 L9,64 L0,64 L0,4.5 C-3.04359188e-16,2.01471863 2.01471863,4.56538782e-16 4.5,0 Z" id="Bar-Copy-72" fill="#44A484"></path>
                    <path d="M19.5,22 L19.5,22 C21.9852814,22 24,24.0147186 24,26.5 L24,64 L15,64 L15,26.5 C15,24.0147186 17.0147186,22 19.5,22 Z" id="Bar-Copy-74" fill="#76C6CC"></path>
                    <path d="M34.5,32 L34.5,32 C36.9852814,32 39,34.0147186 39,36.5 L39,64 L30,64 L30,36.5 C30,34.0147186 32.0147186,32 34.5,32 Z" id="Bar" fill="#E8B251"></path>
                </g>
                <g id="Group-7" transform="translate(1001.294118, 4.000000)">
                    <path d="M4.5,0 L4.5,0 C6.98528137,-4.56538782e-16 9,2.01471863 9,4.5 L9,64 L0,64 L0,4.5 C-3.04359188e-16,2.01471863 2.01471863,4.56538782e-16 4.5,0 Z" id="Bar-Copy-72" fill="#44A484"></path>
                    <path d="M19.5,22 L19.5,22 C21.9852814,22 24,24.0147186 24,26.5 L24,64 L15,64 L15,26.5 C15,24.0147186 17.0147186,22 19.5,22 Z" id="Bar-Copy-74" fill="#76C6CC"></path>
                    <path d="M34.5,32 L34.5,32 C36.9852814,32 39,34.0147186 39,36.5 L39,64 L30,64 L30,36.5 C30,34.0147186 32.0147186,32 34.5,32 Z" id="Bar" fill="#E8B251"></path>
                </g>
                <g id="Group-7" transform="translate(1066.647059, 4.000000)">
                    <path d="M4.5,0 L4.5,0 C6.98528137,-4.56538782e-16 9,2.01471863 9,4.5 L9,64 L0,64 L0,4.5 C-3.04359188e-16,2.01471863 2.01471863,4.56538782e-16 4.5,0 Z" id="Bar-Copy-72" fill="#44A484"></path>
                    <path d="M19.5,22 L19.5,22 C21.9852814,22 24,24.0147186 24,26.5 L24,64 L15,64 L15,26.5 C15,24.0147186 17.0147186,22 19.5,22 Z" id="Bar-Copy-74" fill="#76C6CC"></path>
                    <path d="M34.5,32 L34.5,32 C36.9852814,32 39,34.0147186 39,36.5 L39,64 L30,64 L30,36.5 C30,34.0147186 32.0147186,32 34.5,32 Z" id="Bar" fill="#E8B251"></path>
                </g>
                <g id="Group-7" transform="translate(1132.000000, 4.000000)">
                    <path d="M4.5,0 L4.5,0 C6.98528137,-4.56538782e-16 9,2.01471863 9,4.5 L9,64 L0,64 L0,4.5 C-3.04359188e-16,2.01471863 2.01471863,4.56538782e-16 4.5,0 Z" id="Bar-Copy-72" fill="#44A484"></path>
                    <path d="M19.5,22 L19.5,22 C21.9852814,22 24,24.0147186 24,26.5 L24,64 L15,64 L15,26.5 C15,24.0147186 17.0147186,22 19.5,22 Z" id="Bar-Copy-74" fill="#76C6CC"></path>
                    <path d="M34.5,32 L34.5,32 C36.9852814,32 39,34.0147186 39,36.5 L39,64 L30,64 L30,36.5 C30,34.0147186 32.0147186,32 34.5,32 Z" id="Bar" fill="#E8B251"></path>
                </g>
                <g id="Group-13" transform="translate(30.000000, 72.000000)" fill="#484848" font-family="SourceSansPro-Bold, Source Sans Pro" font-size="12" font-weight="bold" line-spacing="16">
                    <text id="2000">
                        <tspan x="0.328" y="12">2000</tspan>
                    </text>
                    <text id="2001">
                        <tspan x="62.6809412" y="12">2001</tspan>
                    </text>
                    <text id="2002">
                        <tspan x="130.033882" y="12">2002</tspan>
                    </text>
                    <text id="2003">
                        <tspan x="195.386824" y="12">2003</tspan>
                    </text>
                    <text id="2004">
                        <tspan x="259.739765" y="12">2004</tspan>
                    </text>
                    <text id="2005">
                        <tspan x="326.092706" y="12">2005</tspan>
                    </text>
                    <text id="2006">
                        <tspan x="390.445647" y="12">2006</tspan>
                    </text>
                    <text id="2007">
                        <tspan x="454.798588" y="12">2007</tspan>
                    </text>
                    <text id="2008">
                        <tspan x="520.151529" y="12">2008</tspan>
                    </text>
                    <text id="2009">
                        <tspan x="586.504471" y="12">2009</tspan>
                    </text>
                    <text id="2010">
                        <tspan x="650.857412" y="12">2010</tspan>
                    </text>
                    <text id="2011">
                        <tspan x="716.210353" y="12">2011</tspan>
                    </text>
                    <text id="2012">
                        <tspan x="783.563294" y="12">2012</tspan>
                    </text>
                    <text id="2013">
                        <tspan x="846.916235" y="12">2013</tspan>
                    </text>
                    <text id="2014">
                        <tspan x="913.269176" y="12">2014</tspan>
                    </text>
                    <text id="2015">
                        <tspan x="977.622118" y="12">2015</tspan>
                    </text>
                    <text id="2016">
                        <tspan x="1042.97506" y="12">2016</tspan>
                    </text>
                    <text id="2017">
                        <tspan x="1109.328" y="12">2017</tspan>
                    </text>
                </g>
                <g id="Group-9" fill-rule="nonzero">
                    <g id="Group-8" transform="translate(0.000000, 16.000000)">
                        <path d="M7,38 C3.13400675,38 4.73447626e-16,34.8659932 0,31 L-1.77635684e-15,7 C-2.24980447e-15,3.13400675 3.13400675,7.10171439e-16 7,0 L7,38 Z" id="Combined-Shape" fill="#929292"></path>
                        <rect id="Rectangle-3" fill="#FFFFFF" x="2" y="11.6397362" width="1" height="15.3602638"></rect>
                        <rect id="Rectangle-3-Copy-3" fill="#FFFFFF" x="4" y="11.6397362" width="1" height="15.3602638"></rect>
                    </g>
                    <path d="M6.5,0.5 L6.5,67.5" id="Line-2" stroke="#979797" stroke-linecap="square"></path>
                </g>
                <g id="Group-9" transform="translate(1187.000000, 35.000000) scale(-1, 1) translate(-1187.000000, -35.000000) translate(1183.000000, 1.000000)" fill-rule="nonzero">
                    <g id="Group-8" transform="translate(0.000000, 16.000000)">
                        <path d="M7,38 C3.13400675,38 4.73447626e-16,34.8659932 0,31 L-1.77635684e-15,7 C-2.24980447e-15,3.13400675 3.13400675,7.10171439e-16 7,0 L7,38 Z" id="Combined-Shape" fill="#929292"></path>
                        <rect id="Rectangle-3" fill="#FFFFFF" x="2" y="11.6397362" width="1" height="15.3602638"></rect>
                        <rect id="Rectangle-3-Copy-3" fill="#FFFFFF" x="4" y="11.6397362" width="1" height="15.3602638"></rect>
                    </g>
                    <path d="M6.5,0.5 L6.5,67.5" id="Line-2" stroke="#979797" stroke-linecap="square"></path>
                </g>
            </g>
        </g>
    </g>
</svg>