<?xml version="1.0" encoding="UTF-8"?>
<svg width="300px" height="350px" viewBox="0 0 300 350" version="1.1" xmlns="http://www.w3.org/2000/svg" xmlns:xlink="http://www.w3.org/1999/xlink">
    <!-- Generator: Sketch 51.2 (57519) - http://www.bohemiancoding.com/sketch -->
    <title>Group 24</title>
    <desc>Created with Sketch.</desc>
    <defs></defs>
    <g id="Page-1" stroke="none" stroke-width="1" fill="none" fill-rule="evenodd">
        <g id="Desktop-WF" transform="translate(-103.000000, -4425.000000)">
            <g id="Group-24" transform="translate(103.000000, 4425.000000)">
                <g id="Group-22" transform="translate(0.000000, 198.000000)">
                    <g id="Group-27">
                        <path d="M297.489931,152 L271.09097,151.999994 C270.406154,151.999994 269.851001,151.444841 269.851001,150.760025 C269.851001,150.760025 269.851001,150.760025 269.851001,150.760025 C269.851001,84.5493539 215.993499,30.875 149.556903,30.875 C83.120307,30.875 29.2628046,84.5493539 29.2628046,150.760025 C29.2628046,150.760025 29.2628046,150.760025 29.2628046,150.760025 L29.2628046,150.760025 C29.2628046,151.444859 28.7076367,152.000027 28.0228024,152.000027 L2.51006984,151.999978 C1.12379655,151.999978 2.18819635e-15,150.876182 -4.4408921e-16,149.489908 C0,149.489908 0,149.489908 0,149.489908 C0,66.9289117 67.1572875,1.687539e-14 150,0 C232.842712,-1.687539e-14 300,66.9289117 300,149.489908 C300,149.489908 300,149.489908 300,149.489908 L300,149.489908 C300,150.876181 298.876204,151.999977 297.489931,151.999977 Z" id="Combined-Shape-Copy-26" fill="#F5F5F5"></path>
                        <path d="M151.190476,30.8840609 C150.693221,30.8780261 150.195238,30.875 149.696545,30.875 C83.3625896,30.875 29.5882936,84.4164384 29.5882936,150.46315 C29.5882936,150.46315 29.5882936,150.46315 29.5882936,150.46315 L29.5882936,150.46315 C29.5882936,151.311914 28.9002344,151.999973 28.0514703,151.999973 L2.37497181,151.999972 C1.0633111,151.999972 -2.83457101e-16,150.936661 -4.4408921e-16,149.625 C0,149.625 0,149.625 0,149.625 C0,67.0640034 67.2199928,0 150.140056,0 C150.490478,-1.42631427e-16 150.840619,0.0011952991 151.190476,0.00358202575 L151.190476,30.8840609 Z" id="Combined-Shape-Copy-27" fill="#E8B251"></path>
                        <g id="Group-7-Copy-7" transform="translate(145.238095, 2.375000)" fill-rule="nonzero">
                            <rect id="Rectangle-7" fill="#C48C26" x="0" y="0" width="11.9047619" height="26.125" rx="5.95238095"></rect>
                            <rect id="Rectangle-3" fill="#FFFFFF" x="2.38095238" y="16.625" width="7.14285714" height="1.1875" rx="0.5"></rect>
                            <rect id="Rectangle-3-Copy-2" fill="#FFFFFF" x="2.38095238" y="9.5" width="7.14285714" height="1.1875" rx="0.5"></rect>
                            <rect id="Rectangle-3-Copy-7" fill="#FFFFFF" x="2.38095238" y="13.0625" width="7.14285714" height="1.1875" rx="0.5"></rect>
                        </g>
                    </g>
                    <text id="Vegetation-Level" font-family="SourceSansPro-Bold, Source Sans Pro" font-size="12" font-weight="bold" line-spacing="16" fill="#030502">
                        <tspan x="99.6" y="145">VEGETATION LEVEL</tspan>
                    </text>
                    <text id="-0.75" font-family="SourceSansPro-Bold, Source Sans Pro" font-size="50" font-weight="bold" fill="#E8B251">
                        <tspan x="94.1" y="105">-0.75</tspan>
                    </text>
                </g>
                <g id="Group-21">
                    <g id="Group-27-Copy">
                        <path d="M297.489931,152 L271.09097,151.999994 C270.406154,151.999994 269.851001,151.444841 269.851001,150.760025 C269.851001,150.760025 269.851001,150.760025 269.851001,150.760025 C269.851001,84.5493539 215.993499,30.875 149.556903,30.875 C83.120307,30.875 29.2628046,84.5493539 29.2628046,150.760025 C29.2628046,150.760025 29.2628046,150.760025 29.2628046,150.760025 L29.2628046,150.760025 C29.2628046,151.444859 28.7076367,152.000027 28.0228024,152.000027 L2.51006984,151.999978 C1.12379655,151.999978 2.80382536e-15,150.876182 -4.4408921e-16,149.489908 C0,149.489908 0,149.489908 0,149.489908 C0,66.9289117 67.1572875,1.687539e-14 150,0 C232.842712,-1.687539e-14 300,66.9289117 300,149.489908 C300,149.489908 300,149.489908 300,149.489908 L300,149.489908 C300,150.876181 298.876204,151.999977 297.489931,151.999977 Z" id="Combined-Shape-Copy-26" fill="#F5F5F5"></path>
                        <path d="M151.190476,30.8840609 C150.693221,30.8780261 150.195238,30.875 149.696545,30.875 C83.3625896,30.875 29.5882936,84.4164384 29.5882936,150.46315 C29.5882936,150.46315 29.5882936,150.46315 29.5882936,150.46315 L29.5882936,150.46315 C29.5882936,151.311914 28.9002344,151.999973 28.0514703,151.999973 L2.37497181,151.999972 C1.0633111,151.999972 -2.83457101e-16,150.936661 -4.4408921e-16,149.625 C0,149.625 0,149.625 0,149.625 C0,67.0640034 67.2199928,0 150.140056,0 C150.490478,-1.42631427e-16 150.840619,0.0011952991 151.190476,0.00358202575 L151.190476,30.8840609 Z" id="Combined-Shape-Copy-27" fill="#56ADB3"></path>
                        <g id="Group-7-Copy-7" transform="translate(145.238095, 2.375000)" fill-rule="nonzero">
                            <rect id="Rectangle-7" fill="#2C878D" x="0" y="0" width="11.9047619" height="26.125" rx="5.95238095"></rect>
                            <rect id="Rectangle-3" fill="#FFFFFF" x="2.38095238" y="16.625" width="7.14285714" height="1.1875" rx="0.5"></rect>
                            <rect id="Rectangle-3-Copy-2" fill="#FFFFFF" x="2.38095238" y="9.5" width="7.14285714" height="1.1875" rx="0.5"></rect>
                            <rect id="Rectangle-3-Copy-7" fill="#FFFFFF" x="2.38095238" y="13.0625" width="7.14285714" height="1.1875" rx="0.5"></rect>
                        </g>
                    </g>
                    <text id="Temperature-Copy-4" font-family="SourceSansPro-Bold, Source Sans Pro" font-size="12" font-weight="bold" line-spacing="16" fill="#030502">
                        <tspan x="111.018" y="145">TEMPERATURE</tspan>
                    </text>
                    <text id="79-copy" font-family="SourceSansPro-Bold, Source Sans Pro" font-size="50" font-weight="bold" fill="#56ADB3">
                        <tspan x="107.1" y="104">79</tspan>
                    </text>
                    <path d="M167.214101,88.4893617 C166.404696,87.698814 166,86.6586353 166,85.3687943 C166,84.0789534 166.404696,83.0283729 167.214101,82.2170213 C168.023506,81.4056697 169.071565,81 170.358311,81 C171.645057,81 172.687928,81.4056697 173.486956,82.2170213 C174.285984,83.0283729 174.685492,84.0789534 174.685492,85.3687943 C174.685492,86.6586353 174.285984,87.698814 173.486956,88.4893617 C172.687928,89.2799094 171.645057,89.6751773 170.358311,89.6751773 C169.071565,89.6751773 168.023506,89.2799094 167.214101,88.4893617 Z M168.210286,83.1843972 C167.670683,83.7252982 167.400886,84.4534233 167.400886,85.3687943 C167.400886,86.2841653 167.670683,87.0122904 168.210286,87.5531915 C168.74989,88.0940925 169.471079,88.364539 170.373877,88.364539 C171.276674,88.364539 172.003052,88.0888916 172.553032,87.5375887 C173.103012,86.9862857 173.377998,86.2633614 173.377998,85.3687943 C173.377998,84.4742272 173.103012,83.7461021 172.553032,83.1843972 C172.003052,82.6226922 171.276674,82.341844 170.373877,82.341844 C169.471079,82.341844 168.74989,82.6226922 168.210286,83.1843972 Z M179.236374,103 L179.236374,81.3120567 L192,81.3120567 L192,83.0595745 L181.166483,83.0595745 L181.166483,92.0156028 L190.381199,92.0156028 L190.381199,93.7319149 L181.166483,93.7319149 L181.166483,103 L179.236374,103 Z" id="°F-Copy" fill="#56ADB3"></path>
                </g>
            </g>
        </g>
    </g>
</svg>