<?xml version="1.0" encoding="UTF-8"?>
<svg width="10px" height="25px" viewBox="0 0 10 25" version="1.1" xmlns="http://www.w3.org/2000/svg" xmlns:xlink="http://www.w3.org/1999/xlink">
    <!-- Generator: Sketch 49.3 (51167) - http://www.bohemiancoding.com/sketch -->
    <title>thermometer-icon</title>
    <desc>Created with Sketch.</desc>
    <defs>
        <path d="M4.37583333,17.1709402 L4.37583333,5.77371795 L5.625,5.77371795 L5.625,17.1707265 C6.81854167,17.4598291 7.70666667,18.5594017 7.70666667,19.8717949 C7.70666667,21.4044872 6.49520833,22.6470085 5.00083333,22.6470085 C3.50645833,22.6470085 2.295,21.4044872 2.295,19.8717949 C2.295,18.5598291 3.18270833,17.4602564 4.37583333,17.1709402 Z M3.75,16.2444444 C2.29354167,16.7724359 1.25,18.1972222 1.25,19.8717949 C1.25,21.9959402 2.92895833,23.7179487 5,23.7179487 C7.07104167,23.7179487 8.75,21.9959402 8.75,19.8717949 C8.75,18.1972222 7.70645833,16.7724359 6.25,16.2444444 L6.25,2.56410256 C6.25,1.85598291 5.69041667,1.28205128 5,1.28205128 C4.30958333,1.28205128 3.75,1.85598291 3.75,2.56410256 L3.75,16.2444444 Z M2.5,15.4297009 L2.5,2.56410256 C2.5,1.14807692 3.619375,0 5,0 C6.380625,0 7.5,1.14807692 7.5,2.56410256 L7.5,15.4297009 C8.99458333,16.3162393 10,17.9737179 10,19.8717949 C10,22.7040598 7.76145833,25 5,25 C2.23854167,25 0,22.7040598 0,19.8717949 C0,17.9737179 1.00541667,16.3162393 2.5,15.4297009 Z" id="path-1"></path>
    </defs>
    <g id="Page-1" stroke="none" stroke-width="1" fill="none" fill-rule="evenodd">
        <g id="Desktop-WF" transform="translate(-1018.000000, -2161.000000)">
            <g id="thermometer-icon" transform="translate(1018.000000, 2161.000000)">
                <mask id="mask-2" fill="white">
                    <use xlink:href="#path-1"></use>
                </mask>
                <g id="Clip-2"></g>
                <polygon id="Fill-1" fill="#FFFFFF" mask="url(#mask-2)" points="0 25 10 25 10 0 0 0"></polygon>
            </g>
        </g>
    </g>
</svg>