<?xml version="1.0" encoding="UTF-8"?>
<svg width="14px" height="20px" viewBox="0 0 14 20" version="1.1" xmlns="http://www.w3.org/2000/svg" xmlns:xlink="http://www.w3.org/1999/xlink">
    <!-- Generator: Sketch 49.3 (51167) - http://www.bohemiancoding.com/sketch -->
    <title></title>
    <desc>Created with Sketch.</desc>
    <defs></defs>
    <g id="Page-1" stroke="none" stroke-width="1" fill="none" fill-rule="evenodd">
        <g id="Desktop-WF" transform="translate(-1020.000000, -2727.000000)" fill="#FFFFFF">
            <path d="M1027,2747 C1025.74157,2747 1024.57491,2746.68765 1023.5,2746.06296 C1022.42509,2745.43826 1021.57303,2744.59232 1020.94382,2743.52513 C1020.31461,2742.45795 1020,2741.29966 1020,2740.05027 C1020,2739.03514 1020.23596,2738.03302 1020.70787,2737.04392 C1020.99625,2736.44526 1021.55337,2735.56027 1022.37921,2734.38897 C1023.20506,2733.21767 1023.82772,2732.28062 1024.24719,2731.57784 C1024.92884,2730.40654 1025.45318,2729.17016 1025.82022,2727.86872 C1025.95131,2727.50431 1026.18071,2727.25053 1026.50843,2727.10737 C1026.83614,2726.96421 1027.17041,2726.96421 1027.51124,2727.10737 C1027.85206,2727.25053 1028.07491,2727.50431 1028.17978,2727.86872 C1028.57303,2729.17016 1029.09738,2730.41955 1029.75281,2731.61689 C1030.17228,2732.31967 1030.79494,2733.2502 1031.62079,2734.40849 C1032.44663,2735.56678 1033.00375,2736.44526 1033.29213,2737.04392 C1033.76404,2738.007 1034,2739.00911 1034,2740.05027 C1034,2741.29966 1033.68539,2742.45795 1033.05618,2743.52513 C1032.42697,2744.59232 1031.57491,2745.43826 1030.5,2746.06296 C1029.42509,2746.68765 1028.25843,2747 1027,2747 Z M1025.30899,2740.28453 C1025.28277,2740.18041 1025.21723,2740.12836 1025.11236,2740.12836 C1025.00749,2740.12836 1024.94195,2740.18041 1024.91573,2740.28453 C1024.78464,2740.64893 1024.5618,2741.05238 1024.24719,2741.49488 C1024.08989,2741.72914 1023.98502,2741.89832 1023.93258,2742.00244 C1023.85393,2742.18464 1023.81461,2742.37986 1023.81461,2742.58809 C1023.81461,2742.92647 1023.93914,2743.2258 1024.1882,2743.48609 C1024.43727,2743.74638 1024.74532,2743.87653 1025.11236,2743.87653 C1025.4794,2743.87653 1025.78745,2743.74638 1026.03652,2743.48609 C1026.28558,2743.2258 1026.41011,2742.92647 1026.41011,2742.58809 C1026.41011,2742.37986 1026.37079,2742.18464 1026.29213,2742.00244 C1026.2397,2741.89832 1026.13483,2741.72914 1025.97753,2741.49488 C1025.66292,2741.05238 1025.44007,2740.64893 1025.30899,2740.28453 Z" id=""></path>
        </g>
    </g>
</svg>