<?xml version="1.0" encoding="UTF-8"?>
<svg width="31px" height="11px" viewBox="0 0 31 11" version="1.1" xmlns="http://www.w3.org/2000/svg" xmlns:xlink="http://www.w3.org/1999/xlink">
    <!-- Generator: Sketch 49.3 (51167) - http://www.bohemiancoding.com/sketch -->
    <title>soil-icon</title>
    <desc>Created with Sketch.</desc>
    <defs>
        <path d="M0.0144186047,10.9332546 C0.284113531,9.70354399 0.759927485,8.55660613 1.44186047,7.49197778 C2.13611628,6.40811111 3.12403101,5.86642222 4.40560465,5.86642222 C5.06453488,3.66691111 6.13271318,2.04135556 7.60989922,0.989266667 C8.28309038,0.509925609 9.81351364,0.00672588738 11.3906587,-1.0658141e-13 L11.4544799,-8.05281767e-14 C12.1085136,0.00280028962 12.768694,0.0920645401 13.3773411,0.304822222 C14.845876,0.818155556 16.261062,2.04453333 17.6226589,3.98395556 C18.744186,3.64173333 19.8657132,3.69868889 20.987,4.15506667 C22.1085271,4.61144444 22.9094806,5.43864444 23.3901008,6.63642222 C25.3661705,5.83782222 27.1016899,5.83782222 28.5968992,6.63642222 C30.0921085,7.43502222 30.8933023,8.88946667 31,11 L0.0144186047,11 L0.0144186047,10.9332546 Z M9.37209302,3.66666667 C9.77028682,3.66666667 10.0930233,3.33837778 10.0930233,2.93333333 C10.0930233,2.52828889 9.77028682,2.2 9.37209302,2.2 C8.97389922,2.2 8.65116279,2.52828889 8.65116279,2.93333333 C8.65116279,3.33837778 8.97389922,3.66666667 9.37209302,3.66666667 Z M7.56976744,3.66666667 C7.76874419,3.66666667 7.93023256,3.5024 7.93023256,3.3 C7.93023256,3.0976 7.76874419,2.93333333 7.56976744,2.93333333 C7.3707907,2.93333333 7.20930233,3.0976 7.20930233,3.3 C7.20930233,3.5024 7.3707907,3.66666667 7.56976744,3.66666667 Z M9.73255814,5.13333333 C9.93153488,5.13333333 10.0930233,4.96906667 10.0930233,4.76666667 C10.0930233,4.56426667 9.93153488,4.4 9.73255814,4.4 C9.5335814,4.4 9.37209302,4.56426667 9.37209302,4.76666667 C9.37209302,4.96906667 9.5335814,5.13333333 9.73255814,5.13333333 Z" id="path-1"></path>
    </defs>
    <g id="Page-1" stroke="none" stroke-width="1" fill="none" fill-rule="evenodd" opacity="0.5">
        <g id="Desktop-WF" transform="translate(-1014.000000, -2844.000000)">
            <g id="soil-icon" transform="translate(1014.000000, 2844.000000)">
                <mask id="mask-2" fill="white">
                    <use xlink:href="#path-1"></use>
                </mask>
                <g id="Clip-2"></g>
                <polygon id="Fill-1" fill="#B6334F" mask="url(#mask-2)" points="0.0144186047 11 31.0144186 11 31.0144186 0 0.0144186047 0"></polygon>
            </g>
        </g>
    </g>
</svg>