<?xml version="1.0" encoding="UTF-8"?>
<svg width="119px" height="20px" viewBox="0 0 119 20" version="1.1" xmlns="http://www.w3.org/2000/svg" xmlns:xlink="http://www.w3.org/1999/xlink">
    <!-- Generator: Sketch 49.3 (51167) - http://www.bohemiancoding.com/sketch -->
    <title>Combined Shape Copy</title>
    <desc>Created with Sketch.</desc>
    <defs></defs>
    <g id="WF" stroke="none" stroke-width="1" fill="none" fill-rule="evenodd">
        <g id="Landing-Page" transform="translate(-599.000000, -719.000000)" fill="#FFFFFF">
            <path d="M640.018216,724.203031 C640.860753,724.203031 641.658945,724.373224 642.457137,724.671061 C643.210986,725.011446 643.876146,725.436928 644.452618,725.990054 C645.073434,726.585728 645.516874,727.22395 645.827283,727.904721 L643.743114,728.755684 C643.521394,728.287654 643.210986,727.862173 642.856233,727.564336 C642.545825,727.22395 642.102385,726.926113 641.570257,726.713372 C641.082473,726.500632 640.550345,726.372987 640.018216,726.372987 C639.441744,726.372987 638.909616,726.500632 638.421832,726.713372 C637.889703,726.926113 637.446263,727.22395 637.091511,727.564336 C636.736759,727.904721 636.470695,728.330202 636.248975,728.755684 L634.120462,727.904721 C634.475214,727.138854 634.918654,726.500632 635.495127,725.990054 C636.115943,725.436928 636.781103,725.011446 637.534951,724.671061 C638.333144,724.373224 639.131336,724.203031 640.018216,724.203031 Z M639.670783,728.105305 C640.28959,728.105305 640.819996,728.324182 641.262001,728.761938 C641.704007,729.199693 641.925009,729.768774 641.925009,730.381631 C641.925009,730.994488 641.704007,731.56357 641.262001,732.001325 C640.819996,732.43908 640.28959,732.657957 639.670783,732.657957 C639.007775,732.657957 638.477369,732.43908 638.035364,732.001325 C637.593359,731.56357 637.372357,730.994488 637.372357,730.381631 C637.372357,729.768774 637.593359,729.199693 638.035364,728.761938 C638.477369,728.324182 639.007775,728.105305 639.670783,728.105305 Z M643.743114,732.007579 L645.827283,732.858542 C645.516874,733.58186 645.073434,734.220083 644.452618,734.773209 C643.876146,735.326335 643.210986,735.751816 642.457137,736.092201 C641.658945,736.390038 640.860753,736.560231 640.018216,736.560231 C639.131336,736.560231 638.333144,736.390038 637.534951,736.092201 C636.736759,735.751816 636.071599,735.326335 635.495127,734.773209 C634.918654,734.262631 634.475214,733.624408 634.120462,732.858542 L636.248975,732.007579 C636.470695,732.43306 636.736759,732.858542 637.091511,733.241475 C637.534951,733.58186 637.978391,733.879697 638.421832,734.04989 C638.909616,734.262631 639.441744,734.390275 640.018216,734.390275 C640.550345,734.390275 641.082473,734.262631 641.570257,734.04989 C642.013697,733.879697 642.457137,733.58186 642.856233,733.241475 C643.210986,732.90109 643.521394,732.475608 643.743114,732.007579 Z M638.951108,738.051058 C641.190621,738.409938 642.93744,738.006703 644.236358,736.886606 C645.132163,736.080136 645.714436,735.09445 645.938387,733.929549 C646.386289,735.766509 645.714436,737.200233 643.922826,738.230722 C642.176006,739.306015 640.518767,739.261211 638.951108,738.051058 Z M599,736.327453 L599,724.4943 L603.477681,724.4943 L603.477681,736.327453 L599,736.327453 Z M599,722.467372 L599,719.284953 L603.477681,719.284953 L603.477681,722.467372 L599,722.467372 Z M605.503789,724.608059 L610.144163,724.608059 L610.192605,725.917273 C610.688906,725.338015 611.209886,724.919863 611.755086,724.661912 C612.396257,724.355992 613.141623,724.203031 613.991185,724.203031 C615.161104,724.203031 616.163304,724.529316 616.996871,725.181434 C618.006383,725.976556 618.511368,727.097511 618.511368,728.54475 L618.511368,736.560231 L613.9432,736.560231 L613.9432,729.662084 C613.9432,728.691827 613.758572,727.999433 613.390231,727.585354 C613.085412,727.235537 612.644864,727.060402 612.067674,727.060402 C611.538925,727.060402 611.093808,727.23961 610.733235,727.597573 C610.372663,727.955536 610.192605,728.500401 610.192605,729.232619 L610.192605,736.560231 L605.62398,736.560231 L605.62398,727.583997 C605.62398,726.71149 605.615754,726.072043 605.600216,725.667468 C605.583764,725.26244 605.551774,724.909907 605.503789,724.608059 Z M619.812126,732.417853 L624.174773,732.417853 C624.174773,732.874403 624.312056,733.254862 624.587082,733.558788 C624.861648,733.862715 625.209001,734.014899 625.629142,734.014899 C626.049283,733.907139 626.356557,733.82225 626.550043,733.760233 C626.889565,733.637079 627.091343,733.389891 627.156299,733.019549 C627.156299,732.711224 627.010724,732.445123 626.720034,732.221246 C626.428884,731.99781 625.944248,731.801203 625.265665,731.631426 C623.197208,731.075913 621.969494,730.698093 621.581601,730.497528 C620.499001,729.942015 619.957701,729.054865 619.957701,727.836079 C619.957701,726.802904 620.385673,725.961937 621.242079,725.313618 C622.227936,724.573374 623.674013,724.203031 625.580771,724.203031 C627.891085,724.203031 629.515445,724.720279 630.45247,725.753454 C631.033849,726.386379 631.325,727.180723 631.325,728.136927 L626.962352,728.136927 C626.962352,727.597248 626.832901,727.230864 626.574459,727.037776 C626.316017,726.845128 625.952079,726.748804 625.483567,726.748804 C625.111798,726.748804 624.837232,726.849086 624.659409,727.049652 C624.611038,727.111229 624.481586,727.357977 624.271976,727.789896 C624.28764,728.036644 624.429529,728.221815 624.696264,728.345409 C624.962537,728.469003 625.354116,728.58468 625.87146,728.69244 C627.729386,729.108965 628.690827,729.325364 628.755783,729.340319 C629.692808,729.602901 630.363559,729.949932 630.767576,730.381411 C631.268336,730.906136 631.518946,731.654297 631.518946,732.626336 C631.518946,733.907139 630.993309,734.882256 629.943418,735.553446 C628.892605,736.224636 627.422573,736.560231 625.532399,736.560231 L625.362408,736.560231 C623.229456,736.560231 621.727176,736.153822 620.854646,735.340565 C620.159479,734.696205 619.812126,733.722407 619.812126,732.417853 Z M647.778419,724.608059 L652.170776,724.608059 L652.264981,726.560339 C652.671713,725.766575 653.223995,725.195463 653.920932,724.846098 C654.617423,724.496733 655.412583,724.322051 656.305073,724.322051 C657.118985,724.322051 657.863248,724.500806 658.536523,724.857864 C659.209797,725.214922 659.687072,725.766575 659.969686,726.512822 C660.267034,725.957097 660.736272,725.46518 661.378741,725.03662 C662.192652,724.480894 663.101216,724.203031 664.103984,724.203031 C665.403207,724.203031 666.475624,724.600819 667.321682,725.395941 C668.167293,726.191063 668.590545,727.224676 668.590545,728.49678 L668.590545,736.560231 L664.103984,736.560231 L664.103984,729.644435 C664.103984,728.719433 663.946827,728.061432 663.633853,727.670433 C663.319985,727.279886 662.882446,727.083934 662.31811,727.083934 C661.786366,727.083934 661.363114,727.235989 661.05014,727.538742 C660.674213,727.905756 660.485804,728.464197 660.485804,729.213612 L660.485804,736.560231 L656.023352,736.560231 L656.023352,729.679281 C656.023352,728.727126 655.851015,728.036542 655.506788,727.607982 C655.22462,727.259069 654.801814,727.083934 654.237925,727.083934 C653.658409,727.083934 653.200778,727.270835 652.864141,727.643733 C652.527058,728.01663 652.358739,728.552443 652.358739,729.250721 L652.358739,736.560231 L647.919503,736.560231 L647.919503,727.679484 C647.919503,726.933237 647.903431,726.318228 647.872178,725.834004 C647.840925,725.350234 647.809672,724.941133 647.778419,724.608059 Z M670.541682,724.608059 L675.182512,724.608059 L675.230497,725.917273 C675.727256,725.338015 676.248235,724.919863 676.793436,724.661912 C677.434606,724.355992 678.179515,724.203031 679.029535,724.203031 C680.198996,724.203031 681.201197,724.529316 682.034764,725.181434 C683.044733,725.976556 683.54926,727.097511 683.54926,728.54475 L683.54926,736.560231 L678.981093,736.560231 L678.981093,729.662084 C678.981093,728.691827 678.796922,727.999433 678.428123,727.585354 C678.123304,727.235537 677.682757,727.060402 677.106023,727.060402 C676.577275,727.060402 676.132157,727.23961 675.771585,727.597573 C675.411012,727.955536 675.230497,728.500401 675.230497,729.232619 L675.230497,736.560231 L670.66233,736.560231 L670.66233,727.583997 C670.66233,726.71149 670.654104,726.072043 670.638109,725.667468 C670.622114,725.26244 670.590124,724.909907 670.541682,724.608059 Z M685.500397,735.909852 L685.500397,724.168801 L690.05305,724.168801 L690.05305,735.909852 L685.500397,735.909852 Z M685.500397,722.15765 L685.500397,719 L690.05305,719 L690.05305,722.15765 L685.500397,722.15765 Z M695.748823,736.560231 C694.175425,736.560231 693.019287,736.177134 692.279074,735.410059 C691.662526,734.781093 691.353807,733.945404 691.353807,732.902553 L691.353807,732.511538 C691.353807,731.146287 692.016618,730.149618 693.34313,729.520652 C694.46635,728.984051 696.065993,728.715312 698.14117,728.715312 L699.26439,728.715312 L699.26439,728.201583 C699.26439,727.56338 699.178536,727.096274 699.006828,726.799825 C698.788412,726.426404 698.406295,726.239473 697.860032,726.239473 C697.28263,726.239473 696.861367,726.440039 696.596242,726.841169 C696.393395,727.149934 696.292417,727.551065 696.292417,728.044561 L692.079341,728.044561 C692.079341,726.702181 692.648735,725.707271 693.78797,725.059393 C694.801759,724.488485 696.21368,724.203031 698.023733,724.203031 C699.583785,724.203031 700.875154,724.508718 701.897396,725.11921 C702.918748,725.729703 703.430313,726.591342 703.430313,727.704128 L703.430313,733.454107 C703.430313,733.871512 703.461452,734.350494 703.524174,734.891492 C703.586007,735.432491 703.648729,735.873207 703.711007,736.2132 L699.359141,736.2132 C699.343127,736.151623 699.335565,736.097523 699.335565,736.05134 C699.287967,735.665604 699.26439,735.194979 699.26439,734.639466 C698.878714,735.203336 698.469907,735.630857 698.038857,735.919829 C697.406295,736.346471 696.64295,736.560231 695.748823,736.560231 Z M699.26439,730.659388 C698.265725,730.659388 697.51706,730.744276 697.01795,730.914053 C696.222132,731.19159 695.769285,731.708837 695.6603,732.464476 C695.738147,732.942578 695.894285,733.31292 696.128271,733.575062 C696.362257,733.837645 696.721242,733.991587 697.205228,734.03777 C698.01617,733.960799 698.585565,733.560108 698.913412,732.834818 C699.147397,732.325488 699.26439,731.600637 699.26439,730.659388 Z M712.970782,731.631426 L717.368964,731.631426 C717.368964,733.220114 716.724918,734.465731 715.437267,735.368715 C714.304878,736.163059 712.923894,736.560231 711.295199,736.560231 L711.062086,736.560231 C708.626564,736.560231 706.927538,735.808991 705.965449,734.30739 C705.329365,733.315999 705.011765,732.007486 705.011765,730.381411 C705.011765,728.446132 705.566016,726.932655 706.675404,725.840542 C707.78435,724.749308 709.277688,724.203031 711.154977,724.203031 C712.831002,724.203031 714.18058,724.465614 715.205039,724.989898 C716.647508,725.730583 717.368964,726.949369 717.368964,728.646257 L712.970782,728.646257 C712.970782,727.936801 712.797384,727.427911 712.451475,727.118706 C712.168377,726.872398 711.743731,726.748804 711.177979,726.748804 C710.596302,726.748804 710.171656,727.043934 709.904041,727.633754 C709.636426,728.224014 709.502839,729.01528 709.502839,730.00887 C709.502839,730.288606 709.502839,730.505885 709.502839,730.661147 C709.502839,731.639343 709.619617,732.407737 709.851845,732.966769 C710.146443,733.665669 710.596745,734.014899 711.201865,734.014899 C711.76054,734.014899 712.194476,733.830167 712.504998,733.459825 C712.815078,733.090803 712.970782,732.48075 712.970782,731.631426 Z" id="Combined-Shape-Copy"></path>
        </g>
    </g>
</svg>