<?xml version="1.0" encoding="UTF-8"?>
<svg width="118px" height="20px" viewBox="0 0 118 20" version="1.1" xmlns="http://www.w3.org/2000/svg" xmlns:xlink="http://www.w3.org/1999/xlink">
    <!-- Generator: Sketch 49.3 (51167) - http://www.bohemiancoding.com/sketch -->
    <title>Combined Shape Copy</title>
    <desc>Created with Sketch.</desc>
    <defs></defs>
    <g id="Page-1" stroke="none" stroke-width="1" fill="none" fill-rule="evenodd">
        <g id="Desktop-WF" transform="translate(-598.000000, -4938.000000)" fill="#FFFFFF">
            <g id="Group-6" transform="translate(468.000000, 4927.000000)">
                <path d="M170.89036,16.2030314 C171.73027,16.2030314 172.525974,16.373224 173.321678,16.6710611 C174.073177,17.0114463 174.736264,17.4369279 175.310939,17.9900539 C175.92982,18.585728 176.371878,19.2239503 176.681319,19.9047208 L174.603646,20.7556839 C174.382617,20.2876542 174.073177,19.8621726 173.71953,19.5643356 C173.41009,19.2239503 172.968032,18.9261133 172.437562,18.7133725 C171.951299,18.5006317 171.420829,18.3729873 170.89036,18.3729873 C170.315684,18.3729873 169.785215,18.5006317 169.298951,18.7133725 C168.768482,18.9261133 168.326424,19.2239503 167.972777,19.5643356 C167.619131,19.9047208 167.353896,20.3302023 167.132867,20.7556839 L165.010989,19.9047208 C165.364635,19.138854 165.806693,18.5006317 166.381369,17.9900539 C167.00025,17.4369279 167.663337,17.0114463 168.414835,16.6710611 C169.210539,16.373224 170.006244,16.2030314 170.89036,16.2030314 Z M170.544009,20.105305 C171.160888,20.105305 171.68964,20.3241825 172.130268,20.7619375 C172.570895,21.1996926 172.791209,21.7687741 172.791209,22.3816312 C172.791209,22.9944883 172.570895,23.5635698 172.130268,24.0013249 C171.68964,24.4390799 171.160888,24.6579574 170.544009,24.6579574 C169.883068,24.6579574 169.354316,24.4390799 168.913688,24.0013249 C168.473061,23.5635698 168.252747,22.9944883 168.252747,22.3816312 C168.252747,21.7687741 168.473061,21.1996926 168.913688,20.7619375 C169.354316,20.3241825 169.883068,20.105305 170.544009,20.105305 Z M174.603646,24.0075785 L176.681319,24.8585416 C176.371878,25.5818602 175.92982,26.2200825 175.310939,26.7732085 C174.736264,27.3263345 174.073177,27.7518161 173.321678,28.0922013 C172.525974,28.3900384 171.73027,28.560231 170.89036,28.560231 C170.006244,28.560231 169.210539,28.3900384 168.414835,28.0922013 C167.619131,27.7518161 166.956044,27.3263345 166.381369,26.7732085 C165.806693,26.2626307 165.364635,25.6244084 165.010989,24.8585416 L167.132867,24.0075785 C167.353896,24.43306 167.619131,24.8585416 167.972777,25.241475 C168.414835,25.5818602 168.856893,25.8796973 169.298951,26.0498899 C169.785215,26.2626307 170.315684,26.3902751 170.89036,26.3902751 C171.420829,26.3902751 171.951299,26.2626307 172.437562,26.0498899 C172.87962,25.8796973 173.321678,25.5818602 173.71953,25.241475 C174.073177,24.9010897 174.382617,24.4756082 174.603646,24.0075785 Z M169.826578,30.0510585 C172.05911,30.4099375 173.800484,30.0067026 175.095353,28.8866056 C175.988365,28.0801357 176.568824,27.0944503 176.792077,25.9295494 C177.238583,27.7665085 176.568824,29.2002327 174.782798,30.230722 C173.041424,31.3060152 171.38935,31.2612113 169.826578,30.0510585 Z M130,28.3274531 L130,16.4943 L134.463724,16.4943 L134.463724,28.3274531 L130,28.3274531 Z M130,14.4673724 L130,11.2849527 L134.463724,11.2849527 L134.463724,14.4673724 L130,14.4673724 Z M136.483516,16.6080594 L141.109426,16.6080594 L141.157717,17.9172727 C141.652471,17.3380148 142.171827,16.919863 142.715328,16.6619122 C143.3545,16.3559917 144.097542,16.2030314 144.944457,16.2030314 C146.110729,16.2030314 147.109805,16.5293165 147.940774,17.1814342 C148.947139,17.9765561 149.450549,19.0975106 149.450549,20.5447502 L149.450549,28.560231 L144.896621,28.560231 L144.896621,21.6620843 C144.896621,20.6918274 144.712569,19.9994332 144.345375,19.5853543 C144.041507,19.2355369 143.602332,19.0604019 143.026941,19.0604019 C142.499841,19.0604019 142.056111,19.2396098 141.696662,19.597573 C141.337213,19.9555363 141.157717,20.5004007 141.157717,21.2326189 L141.157717,28.560231 L136.603333,28.560231 L136.603333,19.5839967 C136.603333,18.7114895 136.595132,18.0720431 136.579643,17.6674677 C136.563242,17.2624397 136.531352,16.909907 136.483516,16.6080594 Z M150.747253,24.4178531 L155.096301,24.4178531 C155.096301,24.8744032 155.233156,25.2548615 155.507325,25.5587884 C155.781035,25.8627152 156.127306,26.0148986 156.546137,26.0148986 C156.964969,25.9071387 157.271285,25.8222503 157.464168,25.7602334 C157.802631,25.6370792 158.00378,25.3898913 158.068534,25.0195491 C158.068534,24.7112239 157.923412,24.445123 157.633629,24.2212463 C157.343386,23.9978095 156.860261,23.8012027 156.183793,23.6314259 C154.121784,23.0759127 152.897896,22.6980934 152.511212,22.497528 C151.431987,21.9420149 150.892374,21.0548651 150.892374,19.8360789 C150.892374,18.8029035 151.319013,17.9619366 152.172749,17.3136179 C153.155533,16.5733735 154.597102,16.2030314 156.497917,16.2030314 C158.801029,16.2030314 160.420327,16.7202788 161.354431,17.7534542 C161.933998,18.3863786 162.22424,19.1807228 162.22424,20.1369269 L157.875192,20.1369269 C157.875192,19.5972478 157.746144,19.2308642 157.488508,19.0377761 C157.230871,18.8451278 156.868068,18.7488036 156.401016,18.7488036 C156.030405,18.7488036 155.756695,18.8490863 155.579427,19.0496516 C155.531206,19.1112287 155.402158,19.3579769 155.193202,19.7898961 C155.208816,20.0366442 155.350264,20.2218153 155.616166,20.3454092 C155.88161,20.4690032 156.271968,20.5846802 156.7877,20.6924401 C158.639834,21.108965 159.598278,21.3253644 159.663032,21.3403189 C160.597136,21.6029011 161.265796,21.9499319 161.668554,22.3814113 C162.167753,22.9061359 162.417582,23.6542974 162.417582,24.6263355 C162.417582,25.9071387 161.893584,26.8822557 160.846965,27.5534458 C159.799428,28.2246359 158.333977,28.560231 156.449696,28.560231 L156.280234,28.560231 C154.153931,28.560231 152.656334,28.1538223 151.786524,27.340565 C151.093523,26.6962049 150.747253,25.7224075 150.747253,24.4178531 Z M178.626374,16.6080594 L183.005039,16.6080594 L183.09895,18.5603394 C183.504415,17.7665751 184.054975,17.1954631 184.74974,16.8460981 C185.444059,16.4967332 186.236741,16.3220508 187.126449,16.3220508 C187.937824,16.3220508 188.679767,16.5008062 189.350943,16.8578643 C190.022119,17.2149225 190.497906,17.7665751 190.779639,18.5128222 C191.076061,17.9570966 191.543836,17.46518 192.184302,17.0366197 C192.995677,16.4808942 193.901408,16.2030314 194.90105,16.2030314 C196.196223,16.2030314 197.265298,16.6008186 198.108718,17.3959406 C198.951694,18.1910625 199.373626,19.2246758 199.373626,20.4967804 L199.373626,28.560231 L194.90105,28.560231 L194.90105,21.644435 C194.90105,20.7194326 194.744383,20.0614319 194.432384,19.6704328 C194.119495,19.2798863 193.68332,19.0839342 193.120743,19.0839342 C192.590657,19.0839342 192.168724,19.2359894 191.856725,19.5387422 C191.481971,19.9057563 191.294148,20.4641971 191.294148,21.213612 L191.294148,28.560231 L186.845606,28.560231 L186.845606,21.679281 C186.845606,20.7271259 186.673806,20.0365419 186.330652,19.6079816 C186.049364,19.2590692 185.627876,19.0839342 185.065744,19.0839342 C184.488034,19.0839342 184.031831,19.2708354 183.696243,19.6437327 C183.36021,20.0166299 183.192416,20.5524434 183.192416,21.2507207 L183.192416,28.560231 L178.767018,28.560231 L178.767018,19.6794837 C178.767018,18.9332367 178.750995,18.3182277 178.71984,17.8340043 C178.688684,17.3502335 178.657529,16.9411326 178.626374,16.6080594 Z M201.318681,16.6080594 L205.945046,16.6080594 L205.992881,17.9172727 C206.488092,17.3380148 207.007447,16.919863 207.550948,16.6619122 C208.19012,16.3559917 208.932707,16.2030314 209.780077,16.2030314 C210.945894,16.2030314 211.94497,16.5293165 212.775939,17.1814342 C213.782759,17.9765561 214.285714,19.0975106 214.285714,20.5447502 L214.285714,28.560231 L209.731786,28.560231 L209.731786,21.6620843 C209.731786,20.6918274 209.548189,19.9994332 209.18054,19.5853543 C208.876672,19.2355369 208.437497,19.0604019 207.862561,19.0604019 C207.335461,19.0604019 206.891731,19.2396098 206.532282,19.597573 C206.172834,19.9555363 205.992881,20.5004007 205.992881,21.2326189 L205.992881,28.560231 L201.438953,28.560231 L201.438953,19.5839967 C201.438953,18.7114895 201.430753,18.0720431 201.414808,17.6674677 C201.398863,17.2624397 201.366972,16.909907 201.318681,16.6080594 Z M216.230769,27.9098521 L216.230769,16.1688009 L220.769231,16.1688009 L220.769231,27.9098521 L216.230769,27.9098521 Z M216.230769,14.1576497 L216.230769,11 L220.769231,11 L220.769231,14.1576497 L216.230769,14.1576497 Z M226.44725,28.560231 C224.878757,28.560231 223.726222,28.1771336 222.988316,27.4100592 C222.37369,26.7810933 222.065934,25.9454044 222.065934,24.9025527 L222.065934,24.5115383 C222.065934,23.1462865 222.726679,22.1496176 224.049056,21.5206517 C225.168775,20.9840515 226.763432,20.7153115 228.83214,20.7153115 L229.951859,20.7153115 L229.951859,20.2015828 C229.951859,19.5633804 229.866273,19.0962743 229.6951,18.7998246 C229.477364,18.4264037 229.096438,18.2394733 228.551878,18.2394733 C227.976276,18.2394733 227.556326,18.4400386 227.292028,18.8411693 C227.089813,19.1499343 226.989149,19.551065 226.989149,20.0445613 L222.789206,20.0445613 C222.789206,18.702181 223.356826,17.7072714 224.492509,17.0593926 C225.503138,16.4884851 226.910658,16.2030314 228.715069,16.2030314 C230.270258,16.2030314 231.557602,16.5087176 232.576657,17.1192103 C233.594826,17.729703 234.104797,18.5913423 234.104797,19.704128 L234.104797,25.4541073 C234.104797,25.871512 234.135838,26.3504936 234.198365,26.8914922 C234.260005,27.4324908 234.322532,27.8732067 234.384615,28.2132002 L230.046315,28.2132002 C230.03035,28.1516231 230.022812,28.0975232 230.022812,28.0513404 C229.975362,27.665604 229.951859,27.1949792 229.951859,26.6394661 C229.567385,27.2033361 229.159852,27.630857 228.730146,27.9198294 C228.099556,28.3464706 227.33859,28.560231 226.44725,28.560231 Z M229.951859,22.6593878 C228.956307,22.6593878 228.209976,22.7442762 227.712421,22.914053 C226.919084,23.1915897 226.467649,23.7088371 226.359003,24.4644758 C226.436607,24.9425778 226.592259,25.3129199 226.825515,25.5750623 C227.058772,25.8376446 227.416638,25.9915873 227.899115,26.0377701 C228.70753,25.9607987 229.27515,25.5601079 229.601975,24.8348179 C229.835231,24.3254875 229.951859,23.6006374 229.951859,22.6593878 Z M243.615527,23.6314259 L248,23.6314259 C248,25.2201145 247.357961,26.4657307 246.074324,27.3687146 C244.945464,28.1630588 243.568785,28.560231 241.945167,28.560231 L241.712781,28.560231 C239.28485,28.560231 237.59112,27.8089907 236.63203,26.3073897 C235.997929,25.3159988 235.681319,24.0074859 235.681319,22.3814113 C235.681319,20.4461318 236.233843,18.9326552 237.339772,17.8405418 C238.445261,16.749308 239.933945,16.2030314 241.805382,16.2030314 C243.476183,16.2030314 244.821554,16.4656136 245.84282,16.9898985 C247.280793,17.7305827 248,18.949369 248,20.6462572 L243.615527,20.6462572 C243.615527,19.9368014 243.44267,19.4279108 243.097839,19.1187059 C242.815624,18.8723976 242.392301,18.7488036 241.828312,18.7488036 C241.248449,18.7488036 240.825127,19.0439338 240.558345,19.6337542 C240.291564,20.2240144 240.158394,21.0152799 240.158394,22.00887 C240.158394,22.2886058 240.158394,22.5058849 240.158394,22.6611471 C240.158394,23.639343 240.274807,24.4077369 240.506312,24.9667688 C240.799992,25.6656686 241.24889,26.0148986 241.852124,26.0148986 C242.409058,26.0148986 242.84164,25.8301673 243.151195,25.4598252 C243.460308,25.0908026 243.615527,24.4807497 243.615527,23.6314259 Z" id="Combined-Shape-Copy"></path>
            </g>
        </g>
    </g>
</svg>