<?xml version="1.0" encoding="UTF-8"?>
<svg width="1162px" height="412px" viewBox="0 0 1162 412" version="1.1" xmlns="http://www.w3.org/2000/svg" xmlns:xlink="http://www.w3.org/1999/xlink">
    <!-- Generator: Sketch 51.2 (57519) - http://www.bohemiancoding.com/sketch -->
    <title>Group 20</title>
    <desc>Created with Sketch.</desc>
    <defs>
        <polygon id="path-1" points="0 0 960 0 960 16 0 16"></polygon>
        <path d="M0,0 L1160,2 L1160,159 C1059.33333,231 925,283.666667 757,317 C589,350.333333 336.666667,363.666667 0,357 L0,0 Z" id="path-3"></path>
        <linearGradient x1="42.4160765%" y1="11.3129124%" x2="49.8687374%" y2="97.7594033%" id="linearGradient-5">
            <stop stop-color="#3ED0BE" stop-opacity="0.637992527" offset="0%"></stop>
            <stop stop-color="#3ED1DA" stop-opacity="0" offset="100%"></stop>
        </linearGradient>
    </defs>
    <g id="Page-1" stroke="none" stroke-width="1" fill="none" fill-rule="evenodd">
        <g id="Desktop-WF" transform="translate(-102.000000, -3541.000000)">
            <g id="Group-20" transform="translate(102.000000, 3540.000000)">
                <g id="Group-2" transform="translate(2.000000, 2.000000)" fill="#FFFFFF" fill-opacity="0.3" fill-rule="nonzero">
                    <polygon id="Rectangle-3-Copy-6" points="0 1 0 2.22044605e-16 1158.86734 2.22044605e-16 1158.86734 1"></polygon>
                    <rect id="Rectangle-3-Copy-6" x="0" y="79" width="1158.86734" height="1"></rect>
                    <polygon id="Rectangle-3-Copy-6" points="0 158 0 157 1158.86734 157 1158.86734 158"></polygon>
                    <rect id="Rectangle-3-Copy-6" x="0" y="235" width="1158.86734" height="1"></rect>
                    <polygon id="Rectangle-3-Copy-6" points="0 314 0 313 1158.86734 313 1158.86734 314"></polygon>
                </g>
                <rect id="Rectangle-3-Copy-5" fill-opacity="0.3" fill="#FFFFFF" fill-rule="nonzero" transform="translate(581.500000, 388.500000) scale(1, -1) translate(-581.500000, -388.500000) " x="2" y="388" width="1159" height="1"></rect>
                <g id="Group" transform="translate(2.000000, 400.000000)">
                    <mask id="mask-2" fill="white">
                        <use xlink:href="#path-1"></use>
                    </mask>
                    <g id="Duplicate-control"></g>
                    <text id="2000" mask="url(#mask-2)" font-family="SourceSansPro-Regular, Source Sans Pro" font-size="12" font-weight="normal" line-spacing="16" fill="#FFFFFF">
                        <tspan x="1.572" y="12">2000</tspan>
                    </text>
                    <text id="2004" mask="url(#mask-2)" font-family="SourceSansPro-Regular, Source Sans Pro" font-size="12" font-weight="normal" line-spacing="16" fill="#FFFFFF">
                        <tspan x="220.572" y="12">2004</tspan>
                    </text>
                    <text id="2008" mask="url(#mask-2)" font-family="SourceSansPro-Regular, Source Sans Pro" font-size="12" font-weight="normal" line-spacing="16" fill="#FFFFFF">
                        <tspan x="440.572" y="12">2008</tspan>
                    </text>
                    <text id="2012" mask="url(#mask-2)" font-family="SourceSansPro-Regular, Source Sans Pro" font-size="12" font-weight="normal" line-spacing="16" fill="#FFFFFF">
                        <tspan x="659.572" y="12">2012</tspan>
                    </text>
                    <text id="2017" mask="url(#mask-2)" font-family="SourceSansPro-Regular, Source Sans Pro" font-size="12" font-weight="normal" line-spacing="16" fill="#FFFFFF">
                        <tspan x="934.572" y="12">2017</tspan>
                    </text>
                </g>
                <g id="Path-6">
                    <mask id="mask-4" fill="white">
                        <use xlink:href="#path-3"></use>
                    </mask>
                    <g id="Mask" fill-rule="nonzero"></g>
                    <path d="M-1,323.182025 C467,293.806041 779.666667,166.204108 937,-59.6237715 C1094.33333,-285.451651 1202.66667,-142.243728 1262,370 L-1,370 L-1,323.182025 Z" fill="url(#linearGradient-5)" fill-rule="nonzero" mask="url(#mask-4)"></path>
                </g>
                <path d="M0,336 C87.7809226,336 220.064497,330.131131 307.796024,327.289474 C492.781058,321.297739 629.604591,299.222222 837.165082,196.631579 C874.952908,177.954241 1137.97104,32.3913091 1160,5" id="Path-3" stroke="#44A484" stroke-width="4" fill-rule="nonzero"></path>
            </g>
        </g>
    </g>
</svg>